<?xml version="1.0" encoding="utf-8"?>
<!-- Generator: Adobe Illustrator 21.0.0, SVG Export Plug-In . SVG Version: 6.00 Build 0)  -->
<svg version="1.1" id="Layer_1" xmlns="http://www.w3.org/2000/svg" xmlns:xlink="http://www.w3.org/1999/xlink" x="0px" y="0px"
	 viewBox="0 0 2409.4 5669.3" style="enable-background:new 0 0 2409.4 5669.3;" xml:space="preserve">
<style type="text/css">
	.st0{fill:#E6E6E6;}
	.st1{fill:#1B1464;}
	.st2{fill:#3E506B;}
	.st3{fill:#FFFFFF;}
	.st4{fill:#FCC82B;}
	.st5{fill:#E23A59;}
	.st6{fill:#0F5E8C;}
	.st7{fill:#F0B21C;}
	.st8{fill:#44ADAD;}
	.st9{fill:#24928F;}
	.st10{fill:#CB3253;}
	.st11{fill:#314156;}
	.st12{fill:#125570;}
	.st13{font-family:'AvenirNext-Bold';}
	.st14{font-size:59.9239px;}
	.st15{font-size:49.9366px;}
	.st16{font-size:35.9622px;}
	.st17{font-size:53.6818px;}
	.st18{font-size:52.4334px;}
	.st19{letter-spacing:-3.6;}
	.st20{stroke:#FFFFFF;stroke-width:1.8859;stroke-miterlimit:10;}
	.st21{font-family:'BernardMT-Condensed';}
	.st22{font-size:149.8096px;}
	.st23{fill:#FCC82B;stroke:#000000;stroke-width:1.8859;stroke-miterlimit:10;}
	.st24{font-family:'AvenirNext-Heavy';}
	.st25{font-size:85.0311px;}
	.st26{opacity:0.94;fill:#006838;}
	.st27{opacity:0.17;fill:#009444;}
	.st28{opacity:0.19;fill:#231F20;}
	.st29{fill:#231F20;}
	.st30{opacity:0.4;}
	.st31{fill:#595959;}
	.st32{fill:url(#SVGID_3_);}
	.st33{fill:#FD3832;}
	.st34{fill-rule:evenodd;clip-rule:evenodd;fill:#FFFFFF;}
	.st35{font-size:33.5074px;}
	.st36{fill:url(#SVGID_4_);}
	.st37{fill:url(#SVGID_5_);}
	.st38{font-size:32.3966px;}
	.st39{fill:url(#SVGID_6_);}
	.st40{fill:#1E4FAD;}
	.st41{font-size:25.4387px;}
	.st42{fill:url(#SVGID_7_);}
	.st43{fill:#1BA5D4;}
	.st44{font-size:33.6787px;}
	.st45{fill:url(#SVGID_8_);}
	.st46{font-size:38.8967px;}
	.st47{fill:#00B0E7;}
	.st48{fill:none;stroke:#00B0E7;stroke-width:1.4732;stroke-linecap:round;stroke-linejoin:round;stroke-miterlimit:10;}
	.st49{fill:#006837;}
</style>
<rect x="-0.6" y="-1.6" class="st0" width="2409" height="5668.1"/>
<g>
	<g>
		<defs>
			<polygon id="SVGID_1_" points="2455.5,2998.5 -46,3681 -46,1184.1 2450.8,1184.1 			"/>
		</defs>
		<clipPath id="SVGID_2_">
			<use xlink:href="#SVGID_1_"  style="overflow:visible;"/>
		</clipPath>
	</g>
</g>
<g>
	<rect x="1195.9" y="1103.7" class="st1" width="12.4" height="1289.6"/>
	<circle class="st2" cx="1202.1" cy="1103.7" r="43"/>
	<circle class="st3" cx="1202.1" cy="1103.7" r="27.1"/>
	<circle class="st4" cx="1202.1" cy="1428.8" r="43"/>
	<circle class="st3" cx="1202.1" cy="1428.8" r="27.1"/>
	<circle class="st5" cx="1202.1" cy="1754.3" r="43"/>
	<circle class="st3" cx="1202.1" cy="1754.3" r="27.1"/>
	<circle class="st6" cx="1202.1" cy="2079.1" r="43"/>
	<circle class="st3" cx="1202.1" cy="2079.1" r="27.1"/>
	<rect x="1194" y="2434.2" class="st1" width="12.4" height="1289.6"/>
</g>
<g>
	<rect x="1374.8" y="1428.5" class="st3" width="655.4" height="407.3"/>
	<path class="st4" d="M1356.6,1365.4h727.7v126.4h-727.7c-34.9,0-63.2-28.3-63.2-63.2S1321.7,1365.4,1356.6,1365.4z"/>
	<polygon class="st7" points="2030.2,1548.9 2084.3,1491.7 2030.2,1491.7 	"/>
	
		<image style="overflow:visible;opacity:0.4;" width="2958" height="120" xlink:href="86C33B6D9FE9B54.png"  transform="matrix(0.24 0 0 0.24 1374.72 1491.6)">
	</image>
	
		<image style="overflow:visible;opacity:0.2;" width="2733" height="120" xlink:href="86C33B6D9FE9B55.png"  transform="matrix(0.24 0 0 0.24 1374.72 1835.76)">
	</image>
</g>
<g>
	<rect x="374" y="2403.7" class="st3" width="655.5" height="407.3"/>
	<path class="st8" d="M1047.6,2340.6H319.9v126.4h727.7c34.9,0,63.2-28.3,63.2-63.2C1110.8,2368.8,1082.5,2340.6,1047.6,2340.6z"/>
	<polygon class="st9" points="374,2524.1 319.9,2466.9 374,2466.9 	"/>
	
		<image style="overflow:visible;opacity:0.4;" width="2959" height="121" xlink:href="86C33B6D9FE9B53.png"  transform="matrix(0.24 0 0 0.24 319.68 2466.72)">
	</image>
	
		<image style="overflow:visible;opacity:0.2;" width="2733" height="121" xlink:href="86C33B6D9FE9B5C.png"  transform="matrix(0.24 0 0 0.24 373.92 2810.8799)">
	</image>
</g>
<g>
	<rect x="374" y="1753.6" class="st3" width="655.5" height="407.3"/>
	<path class="st5" d="M1047.6,1690.4H319.9v126.4h727.7c34.9,0,63.2-28.3,63.2-63.2C1110.8,1718.7,1082.5,1690.4,1047.6,1690.4z"/>
	<polygon class="st10" points="374,1874 319.9,1816.8 374,1816.8 	"/>
	
		<image style="overflow:visible;opacity:0.4;" width="2959" height="122" xlink:href="86C33B6D9FE9B5F.png"  transform="matrix(0.24 0 0 0.24 319.68 1816.5601)">
	</image>
	
		<image style="overflow:visible;opacity:0.2;" width="2733" height="121" xlink:href="86C33B6D9FE9B5D.png"  transform="matrix(0.24 0 0 0.24 373.92 2160.72)">
	</image>
</g>
<g>
	<rect x="374" y="1103.5" class="st3" width="655.5" height="407.3"/>
	<path class="st2" d="M1047.6,1040.3H319.9v126.4h727.7c34.9,0,63.2-28.3,63.2-63.2C1110.8,1068.6,1082.5,1040.3,1047.6,1040.3z"/>
	<polygon class="st11" points="374,1223.9 319.9,1166.6 374,1166.6 	"/>
	
		<image style="overflow:visible;opacity:0.4;" width="2959" height="121" xlink:href="86C33B6D9FE9B52.png"  transform="matrix(0.24 0 0 0.24 319.68 1166.64)">
	</image>
	
		<image style="overflow:visible;opacity:0.2;" width="2733" height="121" xlink:href="86C33B6D9FE9B56.png"  transform="matrix(0.24 0 0 0.24 373.92 1510.5601)">
	</image>
</g>
<g>
	
		<image style="overflow:visible;opacity:0.2;" width="2733" height="120" xlink:href="86C33B6D9FE9B57.png"  transform="matrix(0.24 0 0 0.24 1372.3199 2485.9199)">
	</image>
	<rect x="1374.8" y="2078.7" class="st3" width="655.4" height="407.3"/>
	<path class="st6" d="M1356.6,2015.5h727.7v126.4h-727.7c-34.9,0-63.2-28.3-63.2-63.2C1293.4,2043.8,1321.7,2015.5,1356.6,2015.5z"
		/>
	<polygon class="st12" points="2030.2,2199 2084.3,2141.8 2030.2,2141.8 	"/>
	
		<image style="overflow:visible;opacity:0.4;" width="2958" height="120" xlink:href="37A3796D81CC7373.png"  transform="matrix(0.24 0 0 0.24 1374.72 2141.76)">
	</image>
</g>
<rect x="1388.6" y="2699.2" class="st3" width="655.4" height="407.3"/>
<path class="st4" d="M1370.4,2636.1h727.7v126.4h-727.7c-34.9,0-63.2-28.3-63.2-63.2C1307.3,2664.3,1335.5,2636.1,1370.4,2636.1z"/>
<polygon class="st7" points="2044.1,2819.6 2098.2,2762.4 2044.1,2762.4 "/>
<image style="overflow:visible;opacity:0.4;" width="2959" height="121" xlink:href="37A3796D81CC7371.png"  transform="matrix(0.24 0 0 0.24 1388.4 2762.3999)">
</image>
<image style="overflow:visible;opacity:0.2;" width="2733" height="120" xlink:href="37A3796D81CC7377.png"  transform="matrix(0.24 0 0 0.24 1388.4 3106.3201)">
</image>
<path class="st2" d="M1041.9,2967.9H314.1v126.4h727.7c34.9,0,63.2-28.3,63.2-63.2C1105,2996.2,1076.8,2967.9,1041.9,2967.9z"/>
<polygon class="st11" points="368.2,3151.4 314.1,3094.2 368.2,3094.2 "/>
<image style="overflow:visible;opacity:0.4;" width="2959" height="121" xlink:href="37A3796D81CC7372.png"  transform="matrix(0.24 0 0 0.24 313.92 3094.0801)">
</image>
<g>
	<rect x="392" y="3687.5" class="st3" width="655.5" height="407.3"/>
	<path class="st5" d="M1065.6,3624.3H337.9v126.4h727.7c34.9,0,63.2-28.3,63.2-63.2C1128.8,3652.6,1100.5,3624.3,1065.6,3624.3z"/>
	<polygon class="st10" points="392,3807.9 337.9,3750.7 392,3750.7 	"/>
	
		<image style="overflow:visible;opacity:0.4;" width="2959" height="120" xlink:href="37A3796D81CC736D.png"  transform="matrix(0.24 0 0 0.24 337.68 3750.48)">
	</image>
	
		<image style="overflow:visible;opacity:0.2;" width="2733" height="120" xlink:href="37A3796D81CC736E.png"  transform="matrix(0.24 0 0 0.24 391.92 4094.6399)">
	</image>
</g>
<image style="overflow:visible;opacity:0.2;" width="2732" height="121" xlink:href="37A3796D81CC736F.png"  transform="matrix(0.24 0 0 0.24 378.72 3446.3999)">
</image>
<rect x="369.2" y="3094.5" class="st3" width="655.4" height="407.3"/>
<path class="st6" d="M1366.4,3297.5h727.7v126.4h-727.7c-34.9,0-63.2-28.3-63.2-63.2C1303.3,3325.8,1331.5,3297.5,1366.4,3297.5z"/>
<text transform="matrix(1 0 0 1 1328.3741 3376.9197)" class="st3 st13 st14">Sabtu ke-4, Ba’da Shubuh</text>
<polygon class="st12" points="2040.1,3481 2094.2,3423.8 2040.1,3423.8 "/>
<image style="overflow:visible;opacity:0.4;" width="2958" height="120" xlink:href="37A3796D81CC7391.png"  transform="matrix(0.24 0 0 0.24 1384.5601 3423.8401)">
</image>
<text transform="matrix(0.8229 0 0 1 408.1901 2591.8865)"><tspan x="0" y="0" class="st13 st15">Kajian Kitab Al-Kabair </tspan><tspan x="0" y="59.9" class="st13 st15"> </tspan><tspan x="0" y="103.1" class="st13 st16">Nara Sumber :  </tspan><tspan x="0" y="146.2" class="st13 st16">Ustadz. Mukhlis Abu Dzar</tspan></text>
<text transform="matrix(1 0 0 1 329.256 1112.2494)" class="st3 st13 st17">Ahad, Rabu, Kamis Ba’da Isya</text>
<text transform="matrix(0.8229 0 0 1 397.5856 1253.1981)"><tspan x="0" y="0" class="st13 st18">Belajar Membaca Al-Qur&apos;an  </tspan><tspan x="0" y="62.9" class="st13 st18">Metode Qiroati </tspan><tspan x="0" y="106.1" class="st13 st16"> </tspan><tspan x="0" y="149.2" class="st13 st16">Nara Sumber : </tspan><tspan x="0" y="192.4" class="st13 st16">Ustadz. Andi</tspan></text>
<text transform="matrix(1 0 0 1 1335.0822 1434.5453)" class="st3 st13 st14">Ahad ke- 1 Ba’da Shubuh</text>
<text transform="matrix(0.8229 0 0 1 1393.2872 1621.2015)"><tspan x="0" y="0" class="st13 st17">Kajian Kitab Adab dan Ahlak </tspan><tspan x="747" y="43.2" class="st13 st16"> </tspan><tspan x="488.8" y="86.3" class="st13 st16">Nara Sumber :  </tspan><tspan x="290.1" y="129.5" class="st13 st16">Ustadz. Ardiansyah , M.Pd</tspan></text>
<text transform="matrix(1 0 0 1 346.6896 1769.5311)" class="st3 st13 st14">Ahad ke- 1, Ba’da Magrib</text>
<text transform="matrix(0.8229 0 0 1 395.4913 1922.6884)"><tspan x="0" y="0" class="st13 st15">Fiqih - kitab  </tspan><tspan x="0" y="59.9" class="st13 st15">Majmu Syarah Al Muhadzdzab </tspan><tspan x="0" y="103.1" class="st13 st16"> </tspan><tspan x="0" y="146.2" class="st13 st16">Nara Sumber :  </tspan><tspan x="0" y="189.4" class="st13 st16">Ustadz.Bakri</tspan></text>
<text transform="matrix(1 0 0 1 1318.048 2090.8015)" class="st3 st13 st14">Sabtu ke- 2, Ba’da Shubuh</text>
<text transform="matrix(0.8229 0 0 1 1854.6241 2243.3445)"><tspan x="0" y="0" class="st13 st18">Tauhid </tspan><tspan x="174.7" y="43.2" class="st13 st16"> </tspan><tspan x="-83.5" y="129.5" class="st13 st16">Nara Sumber :  </tspan><tspan x="-455.1" y="172.6" class="st13 st16">Ustadz. Abdurrohman</tspan><tspan x="-71.2" y="172.6" class="st13 st16 st19"> </tspan><tspan x="-66.5" y="172.6" class="st13 st16">Abu Hanun Lc</tspan></text>
<text transform="matrix(1 0 0 1 337.3112 2423.1072)" class="st3 st13 st14">Ahad ke- 2, Ba’da Shubuh</text>
<text transform="matrix(1 0 0 1 1358.9581 2713.8723)" class="st3 st13 st14">Ahad ke-2 Ba’da Magrib</text>
<text transform="matrix(0.8229 0 0 1 1840.1075 2866.2078)"><tspan x="0" y="0" class="st13 st18">Tasawuf </tspan><tspan x="211.5" y="43.2" class="st13 st16"> </tspan><tspan x="211.5" y="86.3" class="st13 st16"> </tspan><tspan x="-46.7" y="129.5" class="st13 st16">Nara Sumber :  </tspan><tspan x="-163.6" y="172.6" class="st13 st16">Ustadz. Agus Lukman</tspan></text>
<text transform="matrix(1 0 0 1 326.8014 3048.864)" class="st3 st13 st14">Ahad ke- 3, Ba’da Shubuh</text>
<text transform="matrix(0.8229 0 0 1 410.8103 3197.5337)"><tspan x="0" y="0" class="st13 st18">Tafsir Juz &apos;amma </tspan><tspan x="0" y="43.2" class="st13 st16"> </tspan><tspan x="0" y="86.3" class="st13 st16"> </tspan><tspan x="0" y="129.5" class="st13 st16">Nara Sumber :  </tspan><tspan x="0" y="172.6" class="st13 st16">Ustadz Cecep Abu &apos;Adlan</tspan></text>
<text transform="matrix(1 0 0 1 355.3468 3704.7107)" class="st3 st13 st14">Ahad ke- 4, Ba’da Magrib</text>
<text transform="matrix(0.8229 0 0 1 434.8781 3846.7156)"><tspan x="0" y="0" class="st13 st18">Kitab Riyadush Sholihin </tspan><tspan x="0" y="43.2" class="st13 st16"> </tspan><tspan x="0" y="86.3" class="st13 st16"> </tspan><tspan x="0" y="129.5" class="st13 st16">Nara Sumber :  </tspan><tspan x="0" y="172.6" class="st13 st16">Ustadz. R.Asyrofi Muslim, S.Ag</tspan></text>
<circle class="st8" cx="1207.4" cy="2390.7" r="43"/>
<ellipse class="st3" cx="1207.4" cy="2390.7" rx="27.1" ry="27.1"/>
<g>
	<circle class="st2" cx="1200.3" cy="2702.7" r="43"/>
	<circle class="st3" cx="1200.3" cy="2702.7" r="27.1"/>
	<circle class="st4" cx="1200.3" cy="3027.8" r="43"/>
	<circle class="st3" cx="1200.3" cy="3027.8" r="27.1"/>
	<circle class="st5" cx="1200.3" cy="3353.3" r="43"/>
	<circle class="st3" cx="1200.3" cy="3353.3" r="27.1"/>
	<circle class="st6" cx="1200.3" cy="3678.1" r="43"/>
	<circle class="st3" cx="1200.3" cy="3678.1" r="27.1"/>
</g>
<g>
	<g>
	</g>
</g>
<g>
	<text transform="matrix(1 0 0 1 911.616 480.3344)"><tspan x="0" y="0" class="st20 st21 st22">JADWAL KAJIAN RUTIN </tspan><tspan x="363" y="102" class="st23 st24 st25">MASJID AL-HIJRAH</tspan></text>
	
		<image style="overflow:visible;" width="921" height="929" xlink:href="37A3796D81CC7393.png"  transform="matrix(0.5539 0 0 0.5539 277.0103 237.9913)">
	</image>
</g>
<rect x="1384.7" y="3425.5" class="st3" width="655.4" height="407.3"/>
<image style="overflow:visible;opacity:0.2;" width="2733" height="121" xlink:href="37A3796D81CC7396.png"  transform="matrix(0.24 0 0 0.24 1384.5601 3832.5601)">
</image>
<text transform="matrix(0.8229 0 0 1 1820.8546 3571.1755)"><tspan x="0" y="0" class="st13 st18">Tauhid </tspan><tspan x="174.7" y="43.2" class="st13 st16"> </tspan><tspan x="174.7" y="86.3" class="st13 st16"> </tspan><tspan x="-83.5" y="129.5" class="st13 st16">Nara Sumber :  </tspan><tspan x="-470.2" y="172.6" class="st13 st16">Ustadz. Abdurrohman Abu Hanun Lc.</tspan></text>
<g>
	<path class="st26" d="M-0.6-1.4c0,0,2108.9,329.9,2261.3,0H-0.6z"/>
	<path class="st27" d="M94.3-1.7c0,0,2108.9,329.9,2261.3,0L94.3-1.7z"/>
	<path class="st28" d="M128.5-1.2c0,0,2125.5,329.9,2279,0L128.5-1.2z"/>
	<path class="st28" d="M302.5-1.3c0,0,1820.6,353.9,1952.1,0H302.5z"/>
</g>
<image style="overflow:visible;opacity:0.2;" width="2732" height="121" xlink:href="37A3796D81CC738A.png"  transform="matrix(0.24 0 0 0.24 372.72 3503.28)">
</image>
<path class="st29" d="M2725.6,5397.3"/>
<g>
	<g>
		<g>
			<g>
				<g class="st30">
					<g>
						
							<image style="overflow:visible;" width="2141" height="448" xlink:href="37A3796D81CC7389.png"  transform="matrix(0.24 0 0 0.24 310.56 4818.2402)">
						</image>
					</g>
					<polygon class="st31" points="802.9,4872.7 771.6,4904 332.2,4904 332.2,4871.2 363.5,4839.9 802.9,4839.9 					"/>
				</g>
				<polygon class="st3" points="802.9,4872.7 771.6,4904 332.2,4904 332.2,4871.2 363.5,4839.9 802.9,4839.9 				"/>
				<linearGradient id="SVGID_3_" gradientUnits="userSpaceOnUse" x1="494.7173" y1="4904.0107" x2="476.6711" y2="4886.251">
					<stop  offset="0" style="stop-color:#FFFFFF"/>
					<stop  offset="0.1165" style="stop-color:#FFFAFA"/>
					<stop  offset="0.2568" style="stop-color:#FFECEB"/>
					<stop  offset="0.4095" style="stop-color:#FFD4D3"/>
					<stop  offset="0.5709" style="stop-color:#FEB3B1"/>
					<stop  offset="0.7391" style="stop-color:#FE8985"/>
					<stop  offset="0.9107" style="stop-color:#FD5650"/>
					<stop  offset="1" style="stop-color:#FD3832"/>
				</linearGradient>
				<polygon class="st32" points="366.4,4904 493.7,4904 557.8,4839.9 430.5,4839.9 				"/>
				<polygon class="st3" points="337.2,4904 464.5,4904 528.6,4839.9 401.3,4839.9 				"/>
				<polygon class="st33" points="407.4,4828.6 322.4,4913.5 441.5,4913.5 526.4,4828.6 				"/>
			</g>
		</g>
		<path class="st34" d="M408.8,4882.9c-1.5-0.5-2.4-1.4-3-2.9c-1.3-3.5-1.7-18.2,0.8-21.1c0.8-1,1.9-1.6,3.2-1.7
			c6.6-0.7,27.2-0.6,29.5,0.2c1.4,0.5,2.4,1.4,2.9,2.8c1.4,3.6,1.4,16.9-0.2,20.4c-0.4,0.9-1.2,1.6-2.1,2.1
			C437.5,4884,412,4884,408.8,4882.9z M419.3,4876c4-2.1,7.9-4.1,12-6.2c-4-2.1-8-4.2-12-6.2C419.3,4867.7,419.3,4871.8,419.3,4876z
			"/>
	</g>
	<text transform="matrix(0.6886 0 0 1 523.3594 4883.9531)" class="st24 st35">bit.ly/alhijrahbinong</text>
</g>
<g>
	<g>
		<g>
			<g class="st30">
				<g>
					
						<image style="overflow:visible;" width="2142" height="447" xlink:href="37A3796D81CC73B6.png"  transform="matrix(0.24 0 0 0.24 687.12 4970.8799)">
					</image>
				</g>
				<polygon class="st31" points="1179.4,5025.2 1148.1,5056.5 708.7,5056.5 708.7,5023.7 740,4992.4 1179.4,4992.4 				"/>
			</g>
			<polygon class="st3" points="1179.4,5025.2 1148.1,5056.5 708.7,5056.5 708.7,5023.7 740,4992.4 1179.4,4992.4 			"/>
			<linearGradient id="SVGID_4_" gradientUnits="userSpaceOnUse" x1="871.2553" y1="5056.5273" x2="853.2091" y2="5038.7676">
				<stop  offset="0" style="stop-color:#FFFFFF"/>
				<stop  offset="0.1192" style="stop-color:#FAFAFE"/>
				<stop  offset="0.2628" style="stop-color:#EBECFC"/>
				<stop  offset="0.419" style="stop-color:#D3D4F7"/>
				<stop  offset="0.5841" style="stop-color:#B1B4F2"/>
				<stop  offset="0.7563" style="stop-color:#8589EA"/>
				<stop  offset="0.9319" style="stop-color:#5157E1"/>
				<stop  offset="1" style="stop-color:#3A41DD"/>
			</linearGradient>
			<polygon class="st36" points="743,5056.5 870.3,5056.5 934.4,4992.4 807.1,4992.4 			"/>
			<polygon class="st3" points="713.7,5056.5 841,5056.5 905.2,4992.4 777.9,4992.4 			"/>
			<linearGradient id="SVGID_5_" gradientUnits="userSpaceOnUse" x1="861.3682" y1="4963.1484" x2="731.498" y2="5093.0186">
				<stop  offset="1.075300e-02" style="stop-color:#3542E0"/>
				<stop  offset="0.1748" style="stop-color:#3841DF"/>
				<stop  offset="0.2744" style="stop-color:#403FDA"/>
				<stop  offset="0.357" style="stop-color:#4E3CD2"/>
				<stop  offset="0.4301" style="stop-color:#6337C7"/>
				<stop  offset="0.4971" style="stop-color:#7D31B9"/>
				<stop  offset="0.5595" style="stop-color:#9E2AA8"/>
				<stop  offset="0.6173" style="stop-color:#C32193"/>
				<stop  offset="0.6236" style="stop-color:#C82091"/>
				<stop  offset="0.7612" style="stop-color:#F62B37"/>
				<stop  offset="1" style="stop-color:#FFC658"/>
			</linearGradient>
			<polygon class="st37" points="783.9,4981.1 698.9,5066 818,5066 903,4981.1 			"/>
		</g>
	</g>
	<path class="st3" d="M816.9,5012.4c-0.2-2.4-1.1-4.4-2.9-6.1c-1.8-1.8-4.1-2.5-6.6-2.7c-4.2-0.2-14.2-0.4-17.7,0.2
		c-4,0.7-6.6,3-7.7,6.9c-0.9,3-0.7,17.1-0.2,20.1c0.7,4.1,3.1,6.8,7.2,7.8c2.8,0.7,16.7,0.6,19.8,0.1c4.1-0.7,6.8-3.1,7.8-7.2
		C817.5,5028.5,817.2,5015.2,816.9,5012.4z M813.7,5030.3c-0.5,3.1-2.6,5.1-5.7,5.4c-2.9,0.3-15.8,0.5-18.5-0.3
		c-2.6-0.7-4-2.5-4.5-5.1c-0.4-2.5-0.5-14.8,0-18.1c0.5-3.1,2.5-5,5.7-5.4c3.2-0.4,14.6-0.4,17.6,0.1c3.1,0.5,5.1,2.6,5.4,5.7
		C814,5015.7,814.1,5027.1,813.7,5030.3z M799.3,5012.2c-5.1,0-9.2,4.1-9.2,9.2c0,5.1,4.1,9.2,9.2,9.2c5.1,0,9.2-4.1,9.2-9.2
		C808.5,5016.3,804.4,5012.2,799.3,5012.2z M799.3,5027.3c-3.2,0-5.9-2.7-5.9-6c0-3.3,2.7-5.9,6-5.9c3.3,0,5.9,2.7,5.9,6
		C805.3,5024.6,802.6,5027.3,799.3,5027.3z M811,5011.8c0,1.2-1,2.1-2.1,2.1c-1.2,0-2.1-0.9-2.1-2.1c0-1.2,1-2.2,2.2-2.2
		C810.1,5009.7,811,5010.6,811,5011.8z"/>
</g>
<text transform="matrix(0.6886 0 0 1 929.8452 5034.2109)" class="st24 st38">@alhijrahbinong</text>
<g>
	<g>
		<g>
			<g class="st30">
				<g>
					
						<image style="overflow:visible;" width="2142" height="448" xlink:href="37A3796D81CC73B9.png"  transform="matrix(0.24 0 0 0.24 1125.84 5086.0801)">
					</image>
				</g>
				<polygon class="st31" points="1618.2,5140.5 1586.9,5171.7 1147.5,5171.7 1147.5,5138.9 1178.8,5107.6 1618.2,5107.6 				"/>
			</g>
			<polygon class="st3" points="1618.2,5140.5 1586.9,5171.7 1147.5,5171.7 1147.5,5138.9 1178.8,5107.6 1618.2,5107.6 			"/>
			<linearGradient id="SVGID_6_" gradientUnits="userSpaceOnUse" x1="1310.0317" y1="5171.7686" x2="1291.9855" y2="5154.0088">
				<stop  offset="0" style="stop-color:#FFFFFF"/>
				<stop  offset="0.1104" style="stop-color:#FAFBFD"/>
				<stop  offset="0.2433" style="stop-color:#EBF0F8"/>
				<stop  offset="0.388" style="stop-color:#D3DCEF"/>
				<stop  offset="0.5409" style="stop-color:#B1C2E2"/>
				<stop  offset="0.7004" style="stop-color:#85A0D3"/>
				<stop  offset="0.8628" style="stop-color:#5076BF"/>
				<stop  offset="1" style="stop-color:#1E4FAD"/>
			</linearGradient>
			<polygon class="st39" points="1181.7,5171.7 1309,5171.7 1373.1,5107.6 1245.8,5107.6 			"/>
			<polygon class="st3" points="1152.5,5171.7 1279.8,5171.7 1343.9,5107.6 1216.6,5107.6 			"/>
			<polygon class="st40" points="1222.7,5096.3 1137.7,5181.3 1256.8,5181.3 1341.8,5096.3 			"/>
		</g>
	</g>
	<path class="st34" d="M1245.2,5123c1.2,0,2.3,0,3.5,0c0.1,0,0.3,0,0.5,0v-6c-0.6-0.1-1.3-0.2-1.9-0.2c-1.2-0.1-2.4-0.1-3.6-0.1
		c-1.8,0-3.5,0.5-5,1.5c-1.7,1.2-2.7,3-3,5c-0.2,0.8-0.2,1.7-0.2,2.6c0,1.3,0,2.7,0,4v0.5h-5.7v6.7h5.7v16.8h7v-16.8h5.7
		c0.3-2.2,0.6-4.4,0.9-6.7c-0.5,0-0.9,0-1.3,0c-1.6,0-5.3,0-5.3,0s0-3.3,0.1-4.8C1242.4,5123.6,1243.6,5123,1245.2,5123z"/>
</g>
<text transform="matrix(0.6886 0 0 1 1378.543 5144.2764)" class="st24 st41">dkm.alhijrah.binong</text>
<g>
	<g>
		<g>
			<g class="st30">
				<g>
					
						<image style="overflow:visible;" width="2142" height="449" xlink:href="37A3796D81CC73BA.png"  transform="matrix(0.24 0 0 0.24 1592.16 4975.2002)">
					</image>
				</g>
				<polygon class="st31" points="2084.6,5029.7 2053.3,5061 1613.8,5061 1613.8,5028.2 1645.1,4996.9 2084.6,4996.9 				"/>
			</g>
			<polygon class="st3" points="2084.6,5029.7 2053.3,5061 1613.8,5061 1613.8,5028.2 1645.1,4996.9 2084.6,4996.9 			"/>
			<linearGradient id="SVGID_7_" gradientUnits="userSpaceOnUse" x1="1776.3944" y1="5061.0317" x2="1758.3481" y2="5043.272">
				<stop  offset="0" style="stop-color:#FFFFFF"/>
				<stop  offset="0.1096" style="stop-color:#FAFDFE"/>
				<stop  offset="0.2415" style="stop-color:#EBF7FB"/>
				<stop  offset="0.385" style="stop-color:#D3EEF7"/>
				<stop  offset="0.5368" style="stop-color:#B1E0F0"/>
				<stop  offset="0.6951" style="stop-color:#85CFE8"/>
				<stop  offset="0.8563" style="stop-color:#50BADE"/>
				<stop  offset="1" style="stop-color:#1BA5D4"/>
			</linearGradient>
			<polygon class="st42" points="1648.1,5061 1775.4,5061 1839.5,4996.9 1712.2,4996.9 			"/>
			<polygon class="st3" points="1618.9,5061 1746.2,5061 1810.3,4996.9 1683,4996.9 			"/>
			<polygon class="st43" points="1689.1,4985.6 1604.1,5070.6 1723.1,5070.6 1808.1,4985.6 			"/>
		</g>
		<text transform="matrix(1 0 0 1 1809.8379 5037.1504)" class="st13 st44">alhijrahbinong</text>
	</g>
	<path class="st34" d="M1699,5033.2c-3.7-0.1-6-2.8-6.6-4.9c1,0.2,2,0.2,3-0.1c0,0,0.1,0,0.1,0c-2-0.5-3.5-1.5-4.6-3.3
		c-0.7-1.1-1-2.4-1-3.8c1,0.5,2,0.8,3.2,0.9c-1.5-1.1-2.5-2.5-2.9-4.3c-0.4-1.8-0.1-3.5,0.8-5.1c3.8,4.5,8.7,7,14.6,7.4
		c0-0.3-0.1-0.5-0.1-0.8c-0.2-1.7,0.1-3.2,1-4.6c1.1-1.8,2.7-2.9,4.8-3.2c2.4-0.4,4.5,0.3,6.2,2c0.1,0.1,0.2,0.1,0.4,0.1
		c1.5-0.3,2.8-0.8,4.1-1.6c0,0,0.1,0,0.1,0c0,0,0,0,0,0c-0.6,1.6-1.6,2.9-3,3.9c1.4-0.2,2.7-0.5,3.9-1.1c0,0,0,0,0,0
		c-0.3,0.4-0.5,0.7-0.8,1.1c-0.7,0.9-1.6,1.7-2.6,2.4c-0.1,0.1-0.1,0.1-0.1,0.2c0,1.1,0,2.1-0.1,3.1c-0.3,2.2-0.9,4.3-1.8,6.3
		c-1,2.1-2.2,3.9-3.8,5.6c-2.7,2.8-6,4.6-9.7,5.4c-1.3,0.3-2.6,0.4-3.9,0.5c-4.1,0.1-7.9-0.9-11.3-3c0,0-0.1-0.1-0.2-0.1
		c2.5,0.3,4.8-0.1,7.1-1C1696.8,5034.6,1697.9,5034,1699,5033.2z"/>
</g>
<g>
	<g>
		<g>
			<g class="st30">
				<g>
					
						<image style="overflow:visible;" width="2142" height="447" xlink:href="37A3796D81CC73B8.png"  transform="matrix(0.24 0 0 0.24 1817.04 4819.2002)">
					</image>
				</g>
				<polygon class="st31" points="2309.4,4873.5 2278.1,4904.8 1838.7,4904.8 1838.7,4872 1870,4840.7 2309.4,4840.7 				"/>
			</g>
			<polygon class="st3" points="2309.4,4873.5 2278.1,4904.8 1838.7,4904.8 1838.7,4872 1870,4840.7 2309.4,4840.7 			"/>
			<linearGradient id="SVGID_8_" gradientUnits="userSpaceOnUse" x1="2001.2592" y1="4904.8423" x2="1983.2129" y2="4887.082">
				<stop  offset="0" style="stop-color:#FFFFFF"/>
				<stop  offset="0.1096" style="stop-color:#FAFDFE"/>
				<stop  offset="0.2415" style="stop-color:#EBF7FB"/>
				<stop  offset="0.385" style="stop-color:#D3EEF7"/>
				<stop  offset="0.5368" style="stop-color:#B1E0F0"/>
				<stop  offset="0.6951" style="stop-color:#85CFE8"/>
				<stop  offset="0.8563" style="stop-color:#50BADE"/>
				<stop  offset="1" style="stop-color:#1BA5D4"/>
			</linearGradient>
			<polygon class="st45" points="1873,4904.8 2000.3,4904.8 2064.4,4840.7 1937.1,4840.7 			"/>
			<polygon class="st3" points="1843.7,4904.8 1971,4904.8 2035.2,4840.7 1907.9,4840.7 			"/>
			<polygon class="st43" points="1913.9,4829.4 1828.9,4914.4 1948,4914.4 2033,4829.4 			"/>
		</g>
		<text transform="matrix(0.6417 0 0 1 2034.9238 4885.5645)" class="st13 st46">informasi_alhijrah</text>
	</g>
</g>
<g>
	<g>
		<path class="st3" d="M1933.2,4897.9c-15.5,0-28.1-11.8-28.1-26.3s12.6-26.3,28.1-26.3c15.5,0,28.1,11.8,28.1,26.3
			S1948.7,4897.9,1933.2,4897.9z"/>
		<g>
			<path class="st47" d="M1933.2,4846.1c15.1,0,27.3,11.5,27.3,25.6s-12.3,25.6-27.3,25.6s-27.3-11.5-27.3-25.6
				S1918.2,4846.1,1933.2,4846.1 M1933.2,4844.6c-15.9,0-28.8,12.1-28.8,27c0,14.9,12.9,27,28.8,27s28.8-12.1,28.8-27
				C1962,4856.7,1949.1,4844.6,1933.2,4844.6L1933.2,4844.6z"/>
		</g>
	</g>
	<g>
		<line class="st48" x1="1923.8" y1="4874.2" x2="1927" y2="4882.3"/>
		<polygon class="st48" points="1927.4,4875.7 1927,4882.3 1931.6,4878.7 		"/>
		<path class="st48" d="M1945.3,4859.8l-29,10.3c-0.8,0.3-0.8,1.4,0,1.6l7.5,2.4l17-9.6l-13.5,11.1l10.5,7.5c1.1,0.8,2.7,0.3,3-1
			l5.7-21.3C1946.7,4860.2,1946,4859.6,1945.3,4859.8z"/>
	</g>
</g>
<path class="st28" d="M-7.2,4871.9c0,0,2248.5,1771.6,2410.9,0C1211.9,5756.5,453.9,4771.4-7.2,4871.9z"/>
<path class="st49" d="M10.5,4897.9c0,0,2210.6,1494.7,2370.3,0C1209,5644.2,463.8,4813.2,10.5,4897.9z"/>
<path class="st28" d="M49.4,4919.6c0,0,2155.1,1590.1,2310.8,0C1217.9,5713.6,491.4,4829.5,49.4,4919.6z"/>
</svg>
